The.Losers.2010.1080p.Bluray.DTS.x264-LTT.mkv
*********************************************

TiTLE......  The Losers
YEAR.......  2010
GENRE......  Action | Adventure | Crime | Mystery | Thriller
iMDB RATE..  User Rating: 6.6/10 (7,032 votes)
iMDB URL...  http://www.imdb.com/title/tt0480255/
*************************************************
Video
Duration                         : 1h 37mn
Overall bit rate                 : 8 997 Kbps
Width                            : 1 920 pixels
Height                           : 816 pixels
Display aspect ratio             : 2.35:1
Frame rate                       : 23.976 fps
Stream size                      : 4.95 GiB (81%)

Audio
Format                           : DTS
Format/Info                      : Digital Theater Systems
Bit rate                         : 1 510 Kbps
Channel(s)                       : 6 channels
Channel positions                : Front: L C R, Surround: L R, LFE
Sampling rate                    : 48.0 KHz
Resolution                       : 24 bits
Stream size                      : 1.02 GiB (17%)
Language                         : English

Subtitles: English, French (*.srt)
**********************************


